<?xml version="1.0" standalone="no"?>
<!DOCTYPE svg PUBLIC "-//W3C//DTD SVG 1.1//EN" "http://www.w3.org/Graphics/SVG/1.1/DTD/svg11.dtd" >
<svg xmlns="http://www.w3.org/2000/svg">
<metadata>
Created by FontForge 20120731 at Fri Aug 19 17:23:19 2016
 By admin
</metadata>
<defs>
<font id="iconfont" horiz-adv-x="1024" >
  <font-face 
    font-family="iconfont"
    font-weight="500"
    font-stretch="normal"
    units-per-em="1024"
    panose-1="2 0 6 3 0 0 0 0 0 0"
    ascent="896"
    descent="-128"
    x-height="792"
    bbox="-0.235294 -212 2181 896.4"
    underline-thickness="50"
    underline-position="-100"
    unicode-range="U+0078-E625"
  />
<missing-glyph horiz-adv-x="374" 
d="M34 0v682h272v-682h-272zM68 34h204v614h-204v-614z" />
    <glyph glyph-name=".notdef" horiz-adv-x="374" 
d="M34 0v682h272v-682h-272zM68 34h204v614h-204v-614z" />
    <glyph glyph-name=".null" horiz-adv-x="0" 
 />
    <glyph glyph-name="nonmarkingreturn" horiz-adv-x="341" 
 />
    <glyph glyph-name="x" unicode="x" horiz-adv-x="1001" 
d="M281 543q-27 -1 -53 -1h-83q-18 0 -36.5 -6t-32.5 -18.5t-23 -32t-9 -45.5v-76h912v41q0 16 -0.5 30t-0.5 18q0 13 -5 29t-17 29.5t-31.5 22.5t-49.5 9h-133v-97h-438v97zM955 310v-52q0 -23 0.5 -52t0.5 -58t-10.5 -47.5t-26 -30t-33 -16t-31.5 -4.5q-14 -1 -29.5 -0.5
t-29.5 0.5h-32l-45 128h-439l-44 -128h-29h-34q-20 0 -45 1q-25 0 -41 9.5t-25.5 23t-13.5 29.5t-4 30v167h911zM163 247q-12 0 -21 -8.5t-9 -21.5t9 -21.5t21 -8.5q13 0 22 8.5t9 21.5t-9 21.5t-22 8.5zM316 123q-8 -26 -14 -48q-5 -19 -10.5 -37t-7.5 -25t-3 -15t1 -14.5
t9.5 -10.5t21.5 -4h37h67h81h80h64h36q23 0 34 12t2 38q-5 13 -9.5 30.5t-9.5 34.5q-5 19 -11 39h-368zM336 498v228q0 11 2.5 23t10 21.5t20.5 15.5t34 6h188q31 0 51.5 -14.5t20.5 -52.5v-227h-327z" />
    <glyph glyph-name="uniE600" unicode="&#xe600;" horiz-adv-x="1026" 
d="M74 896h878q30 0 52 -21t22 -51v-657q0 -30 -22 -51.5t-52 -21.5h-302l46 -222h-366l45 222h-301q-31 0 -52.5 21.5t-21.5 51.5v657q0 30 21.5 51t52.5 21zM511 81q28 0 47.5 19.5t19.5 47t-19.5 47t-47 19.5t-47 -19.5t-19.5 -47t19.5 -47t46.5 -19.5zM73 238h879v587
h-879v-587z" />
    <glyph glyph-name="uniE601" unicode="&#xe601;" 
d="M81 332l361 333l213 -204l199 228l-71 76h192v-192l-68 68l-252 -279l-213 211l-315 -294zM143 193h64v-324h-64v324zM399 377h64v-508h-64v508zM655 252h64v-383h-64v383zM911 444h64v-575h-64v575z" />
    <glyph glyph-name="uniE602" unicode="&#xe602;" horiz-adv-x="1025" 
d="M584 -98l17 100l-73 70q-40 39 -24 88q7 23 26 38t45 18l88 13l-10 8q-16 14 -23.5 30t-8.5 32t2 31q2 11 6 21q4 8 10 14q8 7 15 12q8 6 17 14q8 6 15 19q7 14 12 26q5 16 9 32q10 3 19 11q8 7 15 20q7 14 10 34q2 16 -1 27q-2 11 -6 19t-11 12q0 42 -6 81q-4 34 -18 74
q-13 39 -38 72q-12 14 -30 28q-16 12 -42 25q-23 10 -50 18q-28 7 -57 7q-22 0 -49 -4q-26 -5 -50 -14q-24 -11 -49 -29q-23 -17 -43 -45q-20 -29 -31 -66t-15 -69q-5 -37 -4 -78q-9 -11 -13 -21t-5 -24q-2 -14 3 -31t12 -27q8 -9 14 -14q7 -5 14 -7q6 -19 11 -31
q5 -15 11 -26q6 -13 14 -20q16 -13 31 -28q14 -13 16 -37q1 -18 1 -29q0 -13 -4 -25q-5 -12 -17 -25t-33 -25q-26 -18 -62 -27q-21 -5 -149 -49q-33 -11 -58 -30q-24 -19 -30 -57q-6 -35 -6.5 -45t1.5 -33q5 -42 17 -50q9 -7 53 -17q27 -6 76.5 -14t153 -17.5t200.5 -9.5
q41 0 81 2q-2 14 1 28zM1009 148l-107 15q-13 2 -25.5 11t-18.5 20l-47 97q-6 11 -14 11t-13 -11l-48 -97q-6 -11 -18.5 -20t-25.5 -11l-107 -15q-12 -2 -14.5 -9.5t6.5 -16.5l78 -75q8 -8 13 -23t3 -27l-18 -106q-3 -19 11 -19q5 0 10 3l96 50q12 6 27 6t27 -6l95 -50
q6 -3 11 -3q14 0 11 19l-18 106q-2 12 2.5 27t13.5 23l78 75q9 9 6.5 16.5t-14.5 9.5z" />
    <glyph glyph-name="uniE603" unicode="&#xe603;" 
d="M1024 424v-80l-108 -29q-6 -37 -20 -73l79 -79l-40 -70l-108 29q-24 -29 -53 -53l29 -108l-70 -40l-80 79q-34 -13 -71 -19l-30 -109h-80l-30 110q-36 6 -71 19l-80 -80l-70 40l30 110q-28 24 -52 52l-110 -30l-40 70l80 81q-12 34 -18 70l-111 30v80l111 30q6 35 18 70
l-80 81l40 70l110 -30q24 28 52 52l-30 110l70 40l80 -80q35 13 71 19l30 110h80l30 -109q36 -6 71 -19l80 79l70 -40l-29 -108q29 -24 53 -53l108 29l40 -70l-78 -79q13 -35 19 -73zM513 716q-90 0 -166.5 -44.5t-120.5 -121t-44 -166.5t44 -166.5t120.5 -121t166.5 -44.5
t166.5 44.5t121 121t44.5 166.5t-44.5 166.5t-121 121t-166.5 44.5zM540 389l73 264q83 -31 135 -104.5t52 -164.5q0 -104 -67 -184zM230 338q-4 23 -4 46q0 119 84 203t203 84q25 0 50 -4l-72 -261zM697 163q-80 -66 -184 -66q-92 0 -166 53t-104 137l258 68z" />
    <glyph glyph-name="uniE604" unicode="&#xe604;" 
d="M805 748q52 -35 92 -78.5t68.5 -94t43.5 -107t15 -114.5q0 -100 -40.5 -188t-110 -153t-162.5 -103t-200 -38q-105 0 -198 38t-163 103.5t-110 153t-40 187.5q0 57 14.5 112t40.5 104.5t65 92.5t87 77q25 17 54.5 13t47.5 -26.5t13.5 -50.5t-28.5 -46
q-72 -49 -110.5 -121t-38.5 -155q0 -71 29 -134t78.5 -109.5t116.5 -74t142.5 -27.5t142.5 27.5t116.5 74t79 109.5t29.5 134q0 84 -41.5 158.5t-115.5 123.5q-25 16 -30.5 44t12.5 51q17 23 46.5 28t54.5 -11v0zM511 351q-29 0 -50.5 19.5t-21.5 47.5v409q0 28 21.5 48.5
t50.5 20.5q31 0 52.5 -20.5t21.5 -48.5v-409q0 -28 -21.5 -47.5t-52.5 -19.5v0z" />
    <glyph glyph-name="uniE605" unicode="&#xe605;" 
d="M512 812q-138 0 -256 -69t-187 -187t-69 -256t69 -256t187 -187t256 -69t256 69t187 187t69 256t-69 256t-187 187t-256 69zM563 44h-102v102h102v-102zM563 249h-102v307h102v-307z" />
    <glyph glyph-name="uniE606" unicode="&#xe606;" 
d="M512 800q-136 0 -251 -67t-182 -182t-67 -251t67 -251t182 -182t251 -67t251 67t182 182t67 251t-67 251t-182 182t-251 67zM568 50q0 -12 -8.5 -20t-19.5 -8h-56q-11 0 -19.5 8t-8.5 20v56q0 11 8.5 19t19.5 8h56q11 0 19.5 -8t8.5 -19v-56zM568 217q0 -12 -8.5 -20
t-19.5 -8h-56q-11 0 -19.5 8t-8.5 20l-55 222q0 60 24 97q14 21 37.5 31.5t47.5 10.5q57 0 86 -41q15 -20 21 -51.5t6 -46.5z" />
    <glyph glyph-name="uniE607" unicode="&#xe607;" 
d="M30 384q0 98 38 187.5t102.5 154t154 102.5t187.5 38t187.5 -38t154 -102.5t102.5 -154t38 -187.5t-38 -187.5t-102.5 -154t-154 -102.5t-187.5 -38t-187.5 38t-154 102.5t-102.5 154t-38 187.5zM572 595l99 -112l-135 -135l-120 120l-199 -198l30 -31l169 169l120 -120
l164 163l113 -127v271h-241z" />
    <glyph glyph-name="uniE608" unicode="&#xe608;" 
d="M51 -26h871v820h-871v-820zM102 742h768v-716h-768v716zM205 282h102v-205h-102v205zM358 435h103v-358h-103v358zM666 333h102v-256h-102v256zM512 333h102v-256h-102v256zM271 389h-117v51h87l169 256l153 -210l103 159l51 -102h102v-51h-118l-35 61l-103 -159
l-153 210z" />
    <glyph glyph-name="uniE609" unicode="&#xe609;" 
d="M272 725h720v-853h-720v853zM392 -14h480v626h-480v-626zM452 327h360v-57h-360v57zM452 498h360v-57h-360v57zM752 100h-300v56h300v-56zM212 782h-60v-626h60v-113h-180v853h720v-114h-120h-420z" />
    <glyph glyph-name="uniE60A" unicode="&#xe60a;" 
d="M474 0q-94 0 -173.5 46.5t-126 126.5t-46.5 173.5t46.5 173.5t126 126t173.5 46v64q-83 0 -160 -32q-73 -31 -130 -87.5t-88 -130.5q-32 -76 -32 -159.5t32 -159.5q31 -74 88 -130.5t130 -87.5q77 -32 160 -32t159 32q74 31 130.5 87.5t88.5 130.5q32 76 32 159h-64
q0 -93 -46.5 -173t-126 -126.5t-173.5 -46.5zM927 582q-31 73 -87.5 130t-130.5 88q-76 32 -159 32h-32v-442h441v32q0 83 -32 160zM581 454v313q124 -12 213 -100.5t100 -212.5h-313z" />
    <glyph glyph-name="uniE60B" unicode="&#xe60b;" 
d="M527 413l66 -66q13 17 31 29l-72 72q-9 -20 -25 -35zM788 553l-70 -158q21 -4 40 -15l68 153q-20 7 -38 20zM695 180q36 0 61 25.5t25 61.5t-25 61t-61 25t-61.5 -25t-25.5 -61t25.5 -61.5t61.5 -25.5zM695 310q18 0 30.5 -12.5t12.5 -30.5t-12.5 -30.5t-30.5 -12.5
t-30.5 12.5t-12.5 30.5t12.5 30.5t30.5 12.5zM867.5 569q35.5 0 61 25.5t25.5 61.5t-25.5 61t-61 25t-61 -25t-25.5 -61t25.5 -61.5t61 -25.5zM867.5 699q17.5 0 30.5 -12.5t13 -30.5t-13 -30.5t-30.5 -12.5t-30.5 12.5t-13 30.5t13 30.5t30.5 12.5zM327 435l-92 -109
q17 -14 29 -33l92 110q-18 13 -29 32zM242 223.5q0 35.5 -25.5 61t-61.5 25.5t-61 -25.5t-25 -61t25 -61t61 -25.5t61.5 25.5t25.5 61zM112 223.5q0 17.5 12.5 30.5t30.5 13t30.5 -13t12.5 -30.5t-12.5 -30.5t-30.5 -13t-30.5 13t-12.5 30.5zM889 115q0 -17 -12.5 -30
t-30.5 -13h-604q-15 0 -26 8.5t-16 21.5q-21 -8 -45 -8q0 -27 19 -46t46 -19h647q27 0 46 19t19 46v450q-20 -12 -43 -16v-413zM198 634q0 18 13 31t31 13h498q4 23 15 43h-535q-27 0 -46 -19t-19 -46v-303q22 0 43 -7v288zM436 418q36 0 61 25.5t25 61t-25 61t-61 25.5
t-61.5 -25.5t-25.5 -61t25.5 -61t61.5 -25.5zM436 548q18 0 30.5 -12.5t12.5 -30.5t-12.5 -31t-30.5 -13t-30.5 13t-12.5 31t12.5 30.5t30.5 12.5z" />
    <glyph glyph-name="uniE60C" unicode="&#xe60c;" horiz-adv-x="1064" 
d="M717 745l-41 40q122 -42 202 -145t87 -231h98l-161 -158l-162 158h95q-7 87 -61 156t-136 97l79 83v0zM809 285q-31 -80 -101 -132t-159 -59v93l-162 -158l162 -157v96q132 7 238 84t149 196l-41 -40l-86 77v0zM425 109q-82 31 -135.5 99t-60.5 154h95l-162 158
l-162 -158h98q7 -128 87 -231t202 -145l-41 40l79 83v0zM244 483q32 80 102 132t159 59v-93l162 158l-162 157v-96q-133 -7 -238.5 -84t-149.5 -196l42 40l85 -77v0zM324 384q0 -82 59 -139.5t144 -57.5q86 0 144.5 57t58.5 140q0 81 -59 139t-144 58t-144 -58t-59 -139z
" />
    <glyph glyph-name="uniE60D" unicode="&#xe60d;" 
d="M909 -128h-140q-19 0 -33 13.5t-14 33.5v93q0 19 14 32.5t33 13.5h93v279h-327v-279h47q19 0 33 -13.5t14 -32.5v-93q0 -20 -14 -33.5t-33 -13.5h-140q-19 0 -33 13.5t-14 33.5v93q0 19 14 32.5t33 13.5h47v279h-327v-279h93q19 0 33 -13.5t14 -32.5v-93q0 -20 -14 -33.5
t-33 -13.5h-140q-19 0 -33 13.5t-14 33.5v93q0 19 14 32.5t33 13.5v279v47h47h327v326h-47q-19 0 -33 13.5t-14 32.5v93q0 20 14 33.5t33 13.5h140q19 0 33 -13.5t14 -33.5v-93q0 -19 -14 -32.5t-33 -13.5h-47v-326h327h47v-47v-279q19 0 33 -13.5t14 -32.5v-93
q0 -20 -14 -33.5t-33 -13.5z" />
    <glyph glyph-name="uniE60E" unicode="&#xe60e;" 
d="M917 736q-13 13 -67.5 69t-64.5 66q-11 11 -24 16.5t-21 5.5l-8 -1v-178q0 -12 6 -18q3 -3 8 -4.5t9 -1.5h4h178q5 21 -20 46zM680 640q-8 8 -12.5 20.5t-4.5 21.5v8v202h-478q-41 0 -69.5 -28.5t-28.5 -69.5v-824q0 -41 29 -69.5t69 -28.5h653q41 0 70 28.5t29 69.5v652
h-205q-32 -2 -52 18zM240 705q0 12 4.5 19.5t11.5 7.5h254q7 0 12 -7.5t5 -19.5v-53q0 -11 -5 -19t-12 -8h-254q-7 0 -11.5 8t-4.5 19v53zM784 75q0 -11 -10 -18.5t-24 -7.5h-477q-14 0 -23.5 7.5t-9.5 18.5v54q0 11 9.5 18.5t23.5 7.5h477q14 0 24 -7.5t10 -18.5v-54z
M784 265q0 -11 -10 -18.5t-24 -7.5h-477q-14 0 -23.5 7.5t-9.5 18.5v54q0 11 9.5 18.5t23.5 7.5h477q14 0 24 -7.5t10 -18.5v-54zM784 504v-53q0 -11 -10 -19t-24 -8h-477q-14 0 -23.5 8t-9.5 19v53q0 11 9.5 19t23.5 8h477q14 0 24 -8t10 -19z" />
    <glyph glyph-name="uniE60F" unicode="&#xe60f;" 
d="M469 522h91v-162h-91v162zM560 896v-211h273v-488h-364v-109h-273v597h273v211q-130 -11 -237.5 -81.5t-169.5 -184t-62 -245.5q0 -104 40.5 -199t109 -164t163.5 -109.5t199 -40.5t199 40.5t163.5 109.5t109 164t40.5 199q0 131 -61.5 244.5t-167.5 184t-235 82.5z" />
    <glyph glyph-name="uniE610" unicode="&#xe610;" horiz-adv-x="1138" 
d="M375 222q0 85 32 163h-244q-6 0 -6 7v81q0 7 6 7h271q7 0 7 -7v-24q50 79 129 129h-407q-6 0 -6 7v81q0 7 6 7h492q7 0 7 -7v-45q62 21 129 21q14 0 28 -1v224q0 13 -9 22t-22 9h-757q-13 0 -22 -9t-9 -22v-961q0 -12 9 -21.5t22 -9.5h529q-85 58 -135 150t-50 199z
M315 199q0 -7 -6 -7h-146q-6 0 -6 7v81q0 7 6 7h146q6 0 6 -7v-81zM791 573q-95 0 -174.5 -47t-126 -127.5t-46.5 -176t46.5 -176t126 -127.5t174 -47t174.5 47t126.5 127.5t46.5 176t-46.5 176t-126.5 127.5t-174 47zM928 242v-45h-109v-63h109v-45h-109v-91h-56v91h-114
v45h114v63h-114v45h95l-105 194h64q3 -7 44 -92t43 -88l92 180h60l-108 -194h94z" />
    <glyph glyph-name="uniE611" unicode="&#xe611;" horiz-adv-x="1366" 
d="M1080 398q-11 -9 -24 -3q-14 6 -14 21v117h-117q-31 0 -77 -30q-50 -32 -121 -103q-30 -29 -88 -91q-130 -137 -200 -193q-60 -47 -122.5 -76.5t-136.5 -29.5h-157q-9 0 -16 6.5t-7 15.5v174q0 9 7 16t16 7h157q33 0 81 30q51 33 121 103q24 23 92 94q124 133 196 190
q133 105 255 106h117v121q0 15 14 21q13 6 24 -3l277 -229q8 -7 8 -18q0 -10 -8 -17zM426 499q-27 -28 -55 -57q-7 -7 -17 -7q-9 0 -16 6q-22 20 -40 35q-71 57 -113 57h-162q-9 0 -16 6.5t-7 16.5v174q0 9 7 15.5t16 6.5h160q98 0 200 -66q50 -33 108 -85q7 -7 7 -16
q1 -10 -6 -17q-27 -27 -66 -69zM687 266q31 33 50 53q7 7 16.5 7t16.5 -6q21 -19 39 -33q73 -58 117 -58h116v123q0 15 14 21q13 6 24 -3l277 -230q8 -6 8 -16.5t-8 -17.5l-277 -229q-6 -5 -15 -5q-5 0 -9 2q-14 6 -14 21v115h-114q-100 0 -202 66q-51 32 -108 84
q-8 6 -8 16t7 16q33 34 70 74z" />
    <glyph glyph-name="uniE612" unicode="&#xe612;" 
d="M181 696v-663h509v556l-125 107h-384zM224 556h114q2 0 2 -11.5t-2 -11.5h-114q-2 0 -2 11.5t2 11.5zM638 105h-408q-8 0 -8 12t8 12h408q8 0 8 -12t-8 -12zM638 153h-408q-8 0 -8 11.5t8 11.5h408q8 0 8 -11.5t-8 -11.5zM222 215q0 12 4 12h220q4 0 4 -12t-4 -12h-220
q-4 0 -4 12zM638 252h-408q-8 0 -8 11.5t8 11.5h408q8 0 8 -11.5t-8 -11.5zM638 299h-408q-8 0 -8 12t8 12h408q8 0 8 -12t-8 -12zM638 346h-408q-8 0 -8 12t8 12h408q8 0 8 -12t-8 -12zM638 389h-408q-8 0 -8 12t8 12h408q8 0 8 -12t-8 -12zM638 436h-408q-8 0 -8 12t8 12
h408q8 0 8 -12t-8 -12zM638 484h-408q-8 0 -8 11.5t8 11.5h408q8 0 8 -11.5t-8 -11.5zM671 571h-61h-60v103l60 -51zM716 833h-385v-109h279l125 -107v-447h106v556zM761 708h-61l1 104l60 -52l61 -52h-61z" />
    <glyph glyph-name="uniE613" unicode="&#xe613;" 
d="M159 733h705v-156h-705v156zM159 427h276v-394h-276v394zM348 427h139v-394h-139v394zM536 427h139v-394h-139v394zM725 427h139v-394h-139v394zM297 568h37v-35h-37v35zM297 521h37v-35h-37v35zM297 476h37v-36h-37v36zM589 568h36v-35h-36v35zM589 521h36v-35h-36v35z
M589 476h36v-36h-36v36zM778 568h36v-35h-36v35zM778 521h36v-35h-36v35zM778 476h36v-36h-36v36zM210 427h36v-35h-36v35zM399 427h36v-35h-36v35zM589 427h36v-35h-36v35zM778 427h36v-35h-36v35z" />
    <glyph glyph-name="uniE614" unicode="&#xe614;" horiz-adv-x="1025" 
d="M49 -163h926v365h49v-414h-1024v1024h1000v-49h-951v-926zM1024 417l-482 -483h-152v152l483 482zM438 -18h84l435 435l-84 84l-435 -435v-84zM146 398v48h415v-48h-415zM146 641h585v-48h-585v48z" />
    <glyph glyph-name="uniE615" unicode="&#xe615;" 
d="M923 445h-301q-7 0 -12 -5.5t-5 -13.5v-378q0 -8 5 -13.5t12 -5.5h301q7 0 12 5.5t5 13.5v378q0 8 -5 13.5t-12 5.5v0zM705 79q0 -6 -4 -10t-9 -4h-38q-5 0 -9 4t-4 10v27q0 6 4 10t9 4h38q5 0 9 -4t4 -10v-27v0zM705 160q0 -5 -4 -9t-9 -4h-38q-5 0 -9 4t-4 9v27
q0 6 4 10t9 4h38q5 0 9 -4t4 -10v-27v0zM705 242q0 -6 -4 -10t-9 -4h-38q-5 0 -9 4t-4 10v27q0 5 4 9t9 4h38q5 0 9 -4t4 -9v-27v0zM804 79q0 -6 -3.5 -10t-8.5 -4h-38q-6 0 -9.5 4t-3.5 10v27q0 6 3.5 10t9.5 4h38q5 0 8.5 -4t3.5 -10v-27v0zM804 160q0 -5 -3.5 -9t-8.5 -4
h-38q-6 0 -9.5 4t-3.5 9v27q0 6 3.5 10t9.5 4h38q5 0 8.5 -4t3.5 -10v-27v0zM804 242q0 -6 -3.5 -10t-8.5 -4h-38q-6 0 -9.5 4t-3.5 10v27q0 5 3.5 9t9.5 4h38q5 0 8.5 -4t3.5 -9v-27v0zM904 79q0 -6 -4 -10t-9 -4h-38q-5 0 -8.5 4t-3.5 10v27q0 6 3.5 10t8.5 4h38q5 0 9 -4
t4 -10v-27v0zM904 160q0 -5 -4 -9t-9 -4h-38q-5 0 -8.5 4t-3.5 9v27q0 6 3.5 10t8.5 4h38q5 0 9 -4t4 -10v-27v0zM904 242q0 -6 -4 -10t-9 -4h-38q-5 0 -8.5 4t-3.5 10v27q0 5 3.5 9t8.5 4h38q5 0 9 -4t4 -9v-27v0zM904 328q0 -8 -5.5 -13t-12.5 -5h-226q-8 0 -13.5 5
t-5.5 13v72q0 8 5.5 13t13.5 5h226q7 0 12.5 -5t5.5 -13v-72v0zM904 328zM349 748q-53 -1 -68 -7q-7 -3 -11.5 -7.5t-7 -14t6.5 -21.5l70 -102h195q67 96 72 106q14 33 -15 38q-6 2 -23.5 5.5t-18.5 3.5h-16q-4 -1 -16.5 -6.5t-31.5 -10t-44 -5.5q-31 -2 -56 9.5t-36 11.5z
M579 504l-44 36h-201q-6 -4 -17 -12.5t-42.5 -38t-60 -63t-63 -88.5t-58.5 -115q-14 -38 -7 -80.5t29 -69.5q44 -54 119 -54h345v485zM453 135v-42h-35v42q-69 7 -86 80l55 14q7 -46 50 -46q20 0 29.5 10t9.5 24q0 15 -9.5 22t-42.5 19q-29 10 -45 20q-17 10 -27 27.5
t-10 41.5q0 31 18.5 56t57.5 30v33h35v-33q60 -7 77 -67l-49 -20q-14 41 -44 41q-15 0 -24 -9t-9 -22t9 -20.5t37 -17.5q32 -12 50 -22q17 -10 28 -28t11 -42q0 -37 -22 -62t-64 -29z" />
    <glyph glyph-name="uniE616" unicode="&#xe616;" horiz-adv-x="1031" 
d="M425 268h-153q-12 0 -19 7t-7 19t7 19.5t19 7.5h127l211 319h150q12 0 19 -7.5t7 -19.5q0 -11 -7 -18.5t-19 -7.5h-121zM359 424h-79q-12 0 -19 -7.5t-7 -19.5t7 -19t19 -7h79q12 0 19 7t7 19t-7 19.5t-19 7.5zM438 529h-158q-12 0 -19 -7t-7 -19t7 -19.5t19 -7.5h158
q12 0 19.5 7.5t7.5 19.5t-7.5 19t-19.5 7zM491 634h-211q-12 0 -19 -7t-7 -19t7 -19t19 -7h211q12 0 19 7t7 19t-7 19t-19 7zM807 798h-585q-55 0 -93.5 -38t-38.5 -94v-424q0 -56 38.5 -94t93.5 -38h266v-85h-79q-12 0 -19 -7t-7 -19t7 -19t19 -7h211q12 0 19 7t7 19t-7 19
t-19 7h-79v85h266q56 0 94 38t38 94v424q0 54 -39 93t-93 39zM886 239q0 -34 -22.5 -56.5t-56.5 -22.5h-585q-34 0 -56.5 22.5t-22.5 56.5v427q0 34 22.5 56.5t56.5 22.5h583q33 0 56 -22.5t23 -56.5v-427h2z" />
    <glyph glyph-name="uniE617" unicode="&#xe617;" horiz-adv-x="1324" 
d="M845 566h61v-66h-61v66zM767 268q0 43 22 79h-37q-7 0 -10 5l-32 51l-55 -88q-3 -4 -9.5 -4t-10.5 4l-10 15l-34 -59q-3 -4 -10 -4h-1q-8 0 -10 5l-44 129l-42 -92q-2 -5 -8.5 -5.5t-10.5 2.5l-35 31l-13 -9q-3 -3 -8 -3h-43q-10 0 -10 7.5t10 7.5h39l18 13q3 2 8 2t8 -3
l30 -26l48 104q2 6 10.5 5.5t10.5 -5.5l45 -132l31 52q2 5 9 5t10 -4l11 -15l55 88q3 4 10 4t10 -4l40 -62h36h4q21 29 54 45.5t70 16.5q41 0 77 -21v189q0 21 -21 35.5t-52 14.5h-598q-30 0 -51.5 -14.5t-21.5 -35.5v-416q0 -21 21.5 -35.5t51.5 -14.5h530
q-41 18 -66.5 56.5t-25.5 85.5zM823 577q0 5 3 8t8 3h83q11 0 11 -19v-89q0 1 -1 0.5t-4 -1.5t-6 -1h-83q-5 0 -8 3t-3 8v88zM342 532v28q0 3 6 3h157q6 0 6 -3v-28q0 -3 -7 -3h-156q-6 0 -6 3zM923.5 161q-45.5 0 -77.5 32t-32 77t32 77t77.5 32t77.5 -32t32 -77t-32 -77
t-77.5 -32zM923 352q-34 0 -58 -24t-24 -58t24 -58.5t58 -24.5t58.5 24.5t24.5 58.5t-24.5 58t-58.5 24zM1051 126q-7 0 -12 5l-57 57q-5 4 -5 11t5 12q12 12 24 0l57 -57q4 -5 4 -12t-4.5 -11.5t-11.5 -4.5z" />
    <glyph glyph-name="uniE618" unicode="&#xe618;" horiz-adv-x="2276" 
d="M1989 801h-1394q-16 0 -36 -3q-24 3 -48 3q-113 0 -209 -56t-152 -152t-56 -209t56 -209t152 -152t209 -56q25 0 51 3q19 -3 33 -3h1394q45 0 80 12t55.5 32t33.5 49.5t18 60t5 67.5v407q0 46 -8.5 81t-29 64.5t-59.5 45t-95 15.5zM2143 182q0 -95 -46 -136t-138 -41
h-1265q99 60 166.5 163.5t67.5 214.5q0 121 -64 221.5t-171 158.5h1283q96 0 131.5 -40.5t35.5 -136.5v-404zM255 160l64 142l109 -102zM448 222l-108 101l260 243l108 -101zM763 512l-31 -27l-109 102l29 29q15 14 30.5 14t28 -8t30.5 -25t27 -29t9.5 -27t-14.5 -29z
M1154 470v39h115v35h-94v37h94v38h49v-38h117v-72h39v-39h-39v-72h-117v-34h125v-39h-125v-33h139v-39h-139v-45q120 0 158 2q-9 -17 -13 -45h-90q-77 2 -116 2q-119 4 -168 47q-25 -31 -62 -63q-2 2 -6 10q-16 27 -20 33q32 26 55 57q-29 43 -51 102l37 19q18 -49 38 -78
q17 43 23 102h-90v47l82 97h-84v45h141v-47l-84 -99h82v-20q-8 -111 -37 -166q43 -45 146 -43h6q2 -2 4 -2v45h-115v39h115v33h-99v39h99v34h-96v37h96v35h-115zM1388 544h-70v-35h70v35zM1318 470v-35h70v35h-70zM1622 181l-33 35q18 19 18 47v148h-53v49h101v-185
q28 21 57 46q6 -29 14 -50q-41 -36 -12 -10q-27 -24 -64 -55q-14 -12 -28 -25zM1638 499q-10 16 -31 43q-20 30 -32 43l41 26q18 -20 49 -61q12 -13 18 -21zM1702 149q-6 12 -27 42l-3 3q-2 2 -3 2q92 45 147 98q-80 94 -112 270l51 12q29 -163 98 -243q70 82 96 248l52 -9
q-33 -186 -113 -278q57 -53 141 -88q-9 -12 -24 -37q-6 -12 -10 -16q-93 53 -144 100q-49 -49 -149 -104zM1849 488q-26 64 -49 113l47 16q31 -65 51 -110z" />
    <glyph glyph-name="uniE619" unicode="&#xe619;" 
d="M252 169q0 -6 4.5 -10.5t10.5 -4.5h416q6 0 10.5 4.5t4.5 10.5t-4.5 10.5t-10.5 4.5h-416q-6 0 -10.5 -4.5t-4.5 -10.5zM785 435q-7 0 -12.5 -4.5t-5.5 -10.5v-291q0 -24 -17.5 -41.5t-41.5 -17.5h-465q-25 0 -42.5 17.5t-17.5 41.5v466q0 24 17.5 41.5t42.5 17.5h291
q15 0 15 17.5t-15 17.5h-297q-36 0 -62.5 -26t-26.5 -63v-476q0 -37 26.5 -63t62.5 -26h476q37 0 63 26t26 63v296q0 15 -17 15zM850.5 771.5q-30.5 3.5 -55.5 -15.5l-379 -299l-37 -124l129 7l379 299q25 19 28.5 50t-15.5 55t-49.5 27.5zM488 369l-67 -3l19 65l55 -7z
M521 388l7 62l-63 8l304 239l55 -70zM886 692.5q-2 -18.5 -17 -29.5l-21 -17l-56 70l22 17q14 11 32.5 9t30 -16.5t9.5 -33zM550 294h-283q-6 0 -10.5 -4t-4.5 -10.5t4.5 -10.5t10.5 -4h283q6 0 10 4t4 10.5t-4 10.5t-10 4z" />
    <glyph glyph-name="uniE61A" unicode="&#xe61a;" horiz-adv-x="1000" 
d="M920 78q-16 0 -19 16q-2 7 -6 19t-21.5 43.5t-41.5 57.5q-109 114 -319 119v-162q0 -12 -11 -17.5t-21 1.5l-383 277q-9 6 -9 16.5t9 16.5l383 279q10 7 21 1.5t11 -17.5v-173q58 -2 117 -18q120 -31 196 -109q118 -119 114 -330q0 -8 -5 -13.5t-13 -6.5h-2zM493 374
q133 0 233 -42q81 -33 136 -93q17 -18 31 -38q-20 122 -95 199q-38 38 -86.5 64t-94.5 35.5t-72 13t-47 3.5q-3 0 -5 -1q-8 0 -14 6t-6 14v153l-330 -239l330 -239v144q0 8 5.5 14t14.5 6z" />
    <glyph glyph-name="uniE61B" unicode="&#xe61b;" 
d="M761 603l-299 -304l299 -303q14 -14 21 -32t7 -36.5t-7 -35.5t-21 -31q-28 -29 -66.5 -29t-66.5 29l-362 365q-14 14 -22 33.5t-9 39t5 38t20 30.5l368 371q28 28 66.5 28t66.5 -28q14 -14 21 -31.5t7 -36t-7 -36t-21 -31.5zM761 603z" />
    <glyph glyph-name="uniE61C" unicode="&#xe61c;" 
d="M740 219q0 126 -72 228h327q12 0 20.5 -8.5t8.5 -20.5v-188q0 -11 -8.5 -19.5t-20.5 -8.5h-256q1 8 1 17zM734 150h261q12 0 20.5 -8.5t8.5 -20.5v-187q0 -12 -8.5 -20.5t-20.5 -8.5h-411q59 45 97.5 108t52.5 137zM345 614q-27 0 -54 -3v98q0 11 8.5 19.5t20.5 8.5h675
q12 0 20.5 -8.5t8.5 -19.5v-188q0 -12 -8.5 -20.5t-20.5 -8.5h-365q-55 58 -129 90t-156 32zM344.5 524q-126.5 0 -215.5 -89.5t-89 -215.5t89 -215.5t215.5 -89.5t215.5 89.5t89 215.5t-89 215.5t-215.5 89.5zM344.5 -72q-120.5 0 -205.5 85.5t-85 206t85 205.5t205.5 85
t206 -85t85.5 -205.5t-85.5 -206t-206 -85.5zM344.5 510q-120.5 0 -205.5 -85t-85 -205.5t85 -206t205.5 -85.5t206 85.5t85.5 206t-85.5 205.5t-206 85zM305 366h83v35h42v-35h84v-33h-84v-32h96v-32l-11 -52q-18 3 -36 4l12 48h-199v32h96v32h-83v33zM312 240l12 21
q19 -6 49 -18q10 -5 15 -7l-12 -24q-36 17 -64 28zM367 192l-12 -23q-33 15 -66 29l12 22q24 -8 66 -28zM181 311q26 41 46 93l38 -12q-32 -59 -60 -107l37 2q3 7 12 23l9 18l32 -15q-36 -69 -76 -128q9 1 29 2.5t29 1.5v-17q-1 -10 -1 -16q-19 -2 -49 -5q-14 -1 -20 -1
q-14 -2 -28 -5l-12 34q14 9 26 25q16 22 29 49q-22 -1 -43 -3q-6 -1 -9 -1l-9 35q14 12 20 27zM167 64l-6 35q7 2 24 3q63 8 95 14v-35q-35 -5 -99 -15q-9 -2 -14 -2zM529 128h-98l-3 -8q19 -7 52 -24q32 -15 49 -23l-23 -35q-40 26 -96 52q-29 -29 -118 -55q-2 7 -13 26
q-5 6 -6 11q99 18 117 56h-101v34h110q5 28 5 93h39q0 -60 -4 -93h90v-34zM345 565q-94 0 -173.5 -46.5t-125.5 -126t-46 -173t46 -173t125.5 -125.5t173.5 -46t173.5 46t125.5 125.5t46 173t-46 173t-125.5 126t-173.5 46.5zM344.5 -86q-126.5 0 -215.5 89.5t-89 215.5
t89 215.5t215.5 89.5t215.5 -89.5t89 -215.5t-89 -215.5t-215.5 -89.5z" />
    <glyph glyph-name="uniE61D" unicode="&#xe61d;" 
d="M512 788q-99 0 -189.5 -38.5t-156 -104t-104 -156t-38.5 -189.5t38.5 -189.5t104 -156t156 -104t189.5 -38.5t189.5 38.5t156 104t104 156t38.5 189.5t-38.5 189.5t-104 156t-156 104t-189.5 38.5zM512 -151q-92 0 -175.5 36t-143.5 96t-96 143.5t-36 175.5t36 175.5
t96 143.5t143.5 96t175.5 36t175.5 -36t143.5 -96t96 -143.5t36 -175.5t-36 -175.5t-96 -143.5t-143.5 -96t-175.5 -36zM711 317q-5 0 -9 -4t-4 -9v-244h-57v200q0 5 -4 9t-10 4h-30q-5 0 -9 -4t-4 -9v-200h-57v162q0 6 -4 10t-10 4h-29q-6 0 -10 -4t-4 -10v-162h-57v109
q0 6 -4 10t-9 4h-30q-6 0 -10 -4t-4 -10v-109h-57v86q0 6 -4 10t-9 4h-28q-5 0 -9 -4t-4 -10v-111q0 -11 8 -19t19 -8h453q12 0 19.5 8t7.5 19v269q0 5 -4 9t-9 4h-28zM326 194l133 133l39 -40l11 -10l4 -4q9 -9 14 -9t14 9l131 131l52 -52q11 -11 24 -5h2l1 1l3 1l2 3
q7 6 7 15v11v30v38v44v38v30v11q0 18 -17 22l-2 1h-4h-181q-3 0 -10 0.5t-10 0t-7.5 -2t-9.5 -5.5q-3 -2 -5 -8q-5 -13 6 -24l52 -52l-48 -48l-54 54l-7 7q-8 7 -22 -7l-9 -10l-59 -59l-147 -147q-10 -10 -10 -24t10 -24l49 -49q10 -10 24 -10t24 10zM405 410l54 54l54 -54
l14 -14l14 14l77 77l14 14l-14 14l-36 37h140v-141l-36 36l-14 14l-14 -14l-131 -131l-10 10l-44 44l-14 14l-15 -14l-142 -142l-40 39z" />
    <glyph glyph-name="uniE61E" unicode="&#xe61e;" 
d="M512 627l-138 35l-310 -173l138 -34l-138 -103l310 -207l138 138l-275 172zM512 248l-127 -135l-183 101v-103l310 -173l310 173v103l-178 -101zM960 489l-310 173l-138 -35l275 -172l-275 -172l138 -138l310 207l-138 103z" />
    <glyph glyph-name="uniE61F" unicode="&#xe61f;" 
d="M265.5 831q-82.5 0 -141 -58t-58.5 -140.5t58.5 -140.5t140.5 -58h199v198q0 83 -58 141t-140.5 58zM759.5 795q67.5 0 115 -47.5t47.5 -115t-47.5 -115t-115.5 -47.5h-163v162q0 68 48 115.5t115.5 47.5zM759 831q-82 0 -140.5 -58t-58.5 -141v-198h199q83 0 141 58
t58 140.5t-58 140.5t-141 58zM759.5 -61q82.5 0 140.5 58t58 140.5t-58 141t-141 58.5h-199v-199q0 -83 58.5 -141t141 -58zM265.5 -61q-82.5 0 -141 58t-58.5 140.5t58.5 141t140.5 58.5h199v-199q0 -83 -58 -141t-140.5 -58z" />
    <glyph glyph-name="uniE620" unicode="&#xe620;" 
d="M853 725h-682q-16 0 -27.5 -11t-11.5 -27v-380q0 -16 11.5 -27t27.5 -11h256l-141 -273q-3 -7 -0.5 -15t9 -11t14.5 -0.5t11 9.5l81 158q0 -7 6 -12.5t15 -5.5h56v-192q0 -16 11 -27t27 -11t27.5 11t11.5 27v192h55q9 0 15 5.5t6 12.5l82 -158q3 -7 11 -9.5t14.5 0.5
t9 11t-0.5 15l-150 273h256q16 0 27.5 11t11.5 27v380q0 16 -11.5 27t-27.5 11zM320 384q-48 0 -81.5 33.5t-33.5 81.5t33.5 81.5t81.5 33.5v-115h115q0 -48 -33.5 -81.5t-81.5 -33.5zM474 154h-52q-8 0 -12 -5l59 120h9v-115h-4zM567.5 614q6.5 0 12 -5t5.5 -11.5t-5.5 -12
t-12 -5.5t-12 5.5t-5.5 12t5.5 11.5t12 5zM567.5 538q6.5 0 12 -5.5t5.5 -12t-5.5 -12t-12 -5.5t-12 5.5t-5.5 12t5.5 12t12 5.5zM567.5 461q6.5 0 12 -5.5t5.5 -12t-5.5 -11.5t-12 -5t-12 5t-5.5 11.5t5.5 12t12 5.5zM619 149q-5 5 -13 5h-56v115h9zM798 422h-154
q-6 0 -11.5 5.5t-5.5 12t5.5 12t11.5 5.5h154q6 0 11.5 -5.5t5.5 -12t-5.5 -12t-11.5 -5.5zM798 499h-154q-6 0 -11.5 5.5t-5.5 12t5.5 11.5t11.5 5h154q6 0 11.5 -5t5.5 -11.5t-5.5 -12t-11.5 -5.5zM798 576h-154q-6 0 -11.5 5.5t-5.5 11.5t5.5 11.5t11.5 5.5h154
q6 0 11.5 -5.5t5.5 -11.5t-5.5 -11.5t-11.5 -5.5zM892 841h-363q6 0 11.5 5t5.5 11.5t-5.5 12t-11.5 5.5h-38q-7 0 -12 -5.5t-5 -12t5 -11.5t12 -5h-359q-16 0 -27 -11.5t-11 -27.5t11 -27t27 -11h764q16 0 27 11t11 27t-13 27.5t-29 11.5z" />
    <glyph glyph-name="uniE621" unicode="&#xe621;" 
d="M446 280q22 -38 51 -43v88h-69q7 -25 18 -45zM409 325h-45q27 -55 83 -78q-9 10 -17 24q-13 24 -21 54zM446 506q-11 -20 -18 -45h69v88q-29 -5 -51 -43zM612 393q0 -25 -5 -50h49q7 21 8 43v2v1v4v4v1v2q-1 22 -8 43h-49q5 -25 5 -50zM401 393q0 25 4 50h-48
q-6 -20 -8 -41v-2v-2v-1v-4v-4v-1v-2v-2q2 -21 8 -41h48q-4 25 -4 50zM604 461h44v1l-1 2l-1 1v2l-1 1l-2 2v2q-1 0 -2 2v1q-1 0 -2 2v1l-2 2v1l-2 2v1q-1 1 -2 3h-1q-3 5 -7 9q-1 1 -2 3h-1l-2 2v1q-2 1 -2 2l-1 1l-2 2h-1q-1 2 -2 2v1h-1q-1 1 -1 2q-1 0 -1 1q-2 0 -2 1
l-1 1q-1 1 -2 1q0 1 -1 1l-2 2l-1 1q-1 0 -2 1q-1 0 -1 1q-1 0 -2 1q-1 0 -1 1q-1 0 -2 1l-1 1l-2 1q-1 0 -2 1q-1 0 -2 1l-1 1q-1 0 -2 1q-1 0 -1 1q-1 0 -2 1h-2q0 1 -2 1l-1 1q-1 0 -2 1q-1 0 -1 1q-1 0 -3 1h-1l-2 1q10 -10 17 -24q14 -24 22 -54zM419 393q0 -26 5 -50
h73v100h-73q-5 -24 -5 -50zM294 520q13 15 11.5 34.5t-17.5 32.5q-13 -15 -11 -35t17 -32zM223 472q-5 -19 5 -36t29 -22q6 19 -4 36t-30 22zM430 515q8 14 17 24q-56 -23 -83 -78h45q8 30 21 54zM358 586q21 0 35 14.5t14 35.5q-21 0 -35.5 -14.5t-13.5 -35.5zM383 147
q-19 -5 -29 -23q11 -6 24 -6q6 0 12 2q20 5 29 22q-11 7 -24 7q-6 0 -12 -2zM249 333q-12 8 -27 8q-4 0 -9 -1q4 -19 20 -31q12 -8 27 -8q4 0 9 1q-4 20 -20 31zM295 225q-4 1 -8 1q-15 0 -27 -9q11 -17 31 -20q4 -1 8 -1q15 0 27 9q-11 17 -31 20zM622 120q6 -2 13 -2
q12 0 24 6q-10 18 -29 23q-6 2 -13 2q-12 0 -23 -7q9 -17 28 -22zM687 205q12 -9 27 -9q4 0 8 1q20 3 31 20q-12 9 -28 9q-4 0 -8 -1q-19 -3 -30 -20zM606 636q-1 -21 13.5 -35.5t35.5 -14.5q1 21 -13.5 35.5t-35.5 14.5zM725 587q-16 -13 -17.5 -32.5t10.5 -34.5
q16 12 18 32t-11 35zM764 333q-17 -11 -20 -31q5 -1 9 -1q15 0 27 8q16 12 19 31q-4 1 -9 1q-14 0 -26 -8zM504 880q-102 0 -194.5 -40t-160 -107t-107 -160t-39.5 -195t39.5 -195t107 -160t160 -107t194.5 -40t195 40t160 107t107 160t40 195t-40 195t-107 160t-160 107
t-195 40zM482 149q-2 -8 -9 -8h-2q-15 3 -30 7l-2 -6q-12 -31 -44 -40q-8 -2 -17 -2q-23 0 -41 14l-5 4l2 6q12 32 44 41q9 2 17 2h1q-26 14 -48 33l-4 -3q-19 -19 -45 -19q-6 0 -11 1q-33 6 -48 36l-3 6l5 4q19 19 45 19q6 0 11 -1q8 -1 14 -4q-17 23 -28 49l-3 -1
q-10 -4 -21 -4q-21 0 -37 12q-28 18 -28 52l-1 6l7 3q10 3 21 3q21 0 37 -11l8 -6q-5 26 -5 53q-33 3 -50 32q-16 28 -3 59l3 6l6 -1q34 -3 50 -32l2 -4q7 25 18 47q-26 18 -29 48q-3 34 22 56l5 4l6 -3q28 -17 31 -51v0l18 18v2q-6 34 18 58q19 20 48 20q4 0 9 -1l7 -1
l1 -6q6 -34 -18 -58q-19 -19 -45 -20q-74 -64 -80 -161q-7 -91 48.5 -161.5t144.5 -86.5q9 -2 8 -10zM497 218q-51 2 -92 31.5t-60 75.5v0q-12 29 -14 60v1v3v4v4v3v1q3 68 51 116t115 51h9q71 0 121.5 -48.5t54.5 -118.5v-1v-3v-4v-4v-3v-1q-4 -70 -54.5 -118.5
t-121.5 -48.5h-9zM818 347q0 -34 -28 -52q-17 -12 -37 -12q-11 0 -22 4l-2 1q-12 -26 -28 -49q6 3 13 4q6 1 11 1q27 0 46 -19l5 -4l-3 -6q-15 -30 -48 -36q-5 -1 -11 -1q-26 0 -45 19l-4 3q-22 -19 -49 -33h1q9 0 18 -2q32 -9 43 -41l3 -6l-5 -4q-18 -14 -41 -14
q-9 0 -17 2q-33 9 -44 40l-3 6q-14 -4 -29 -7h-2q-8 0 -9 8t7 10q90 16 145 86.5t49 161.5q-7 97 -80 161q-27 1 -45 20q-24 24 -18 58l1 6l7 1q4 1 9 1q29 0 48 -20q24 -24 18 -58v-2q9 -9 17 -18v0q3 34 32 51l6 3l5 -4q25 -22 22 -56q-3 -30 -29 -48q11 -22 17 -47
q1 2 3 4q16 29 50 32l6 1l3 -6q13 -31 -4 -59q-16 -29 -49 -32q0 -27 -5 -53q4 3 7 6q17 11 37 11q12 0 22 -3l6 -3v-6zM567 506q-22 38 -52 43v-88h70q-7 25 -18 45zM633 299q1 2 2 3v1l2 2v1l2 2v1q1 2 2 2v1q1 2 2 2v2l2 2l1 1v2l1 1l1 2v1h-44q-8 -30 -22 -54
q-7 -14 -17 -24q2 1 3 1v0q2 1 3 1l1 1q1 1 2 1t1 1q2 0 3 1h1q1 1 2 1q0 1 1 1q1 1 2 1l1 1q1 1 2 1t2 1q1 0 2 1l1 1q1 0 2 1q0 1 1 1q1 1 2 1l1 1q1 1 2 1l1 1q1 1 2 1.5t1 1.5q1 0 2 1l1 1q0 1 2 1v1h1q0 1 1 2h1v1q1 0 2 2h1l2 2l1 1l2 2v1l2 2h1q1 2 2 3q4 4 7 9h1z
M585 325h-70v-88q30 5 52 43q11 20 18 45zM594 393q0 26 -5 50h-74v-100h74q5 24 5 50zM785 436q10 17 4 36q-19 -5 -29 -22t-5 -36q20 5 30 22z" />
    <glyph glyph-name="uniE622" unicode="&#xe622;" 
d="M770 832h-133q-34 0 -57 -23t-23 -57v-736q0 -34 23 -57t57 -23h133q33 0 56.5 23t23.5 57v736q0 32 -24 56t-56 24zM786 16q0 -16 -16 -16h-133q-16 0 -16 16v22h51q8 0 14.5 6.5t6.5 15t-6.5 14.5t-14.5 6h-51v69h51q8 0 14.5 6t6.5 14.5t-6.5 14.5t-14.5 6h-51v69h89
q9 0 15 6.5t6 14.5t-6 14.5t-15 6.5h-89v69h51q8 0 14.5 6t6.5 14.5t-6.5 14.5t-14.5 6h-51v69h51q8 0 14.5 6t6.5 14.5t-6.5 15t-14.5 6.5h-51v68h89q9 0 15 6.5t6 15t-6 14.5t-15 6h-89v67h51q8 0 14.5 6.5t6.5 14.5t-6.5 14.5t-14.5 6.5h-51v11q0 16 16 16h133
q16 0 16 -16v-736zM355 832h-110q-31 0 -53 -22t-22 -53v-615l121 -200q5 -7 14 -7t13 7l114 200v615q-1 31 -24 53t-53 22zM299 54l-40 64h82zM366 184h-132v432h132v-432zM366 680h-132v77q0 11 11 11h110q11 0 11 -11v-77z" />
    <glyph glyph-name="uniE623" unicode="&#xe623;" 
d="M1024 384q0 139 -68.5 257t-186.5 186.5t-257 68.5t-257 -68.5t-186.5 -186.5t-68.5 -257t68.5 -257t186.5 -186.5t257 -68.5t257 68.5t186.5 186.5t68.5 257zM798 326q-4 -36 -32.5 -61t-67 -25t-67 25t-32.5 61h199zM425 326q-4 -36 -32.5 -61t-67 -25t-67 25t-32.5 61
h199zM533 561v-5v-407l120 -50q14 -5 13 -9.5t-16 -4.5h-276q-15 0 -16 4t13 10l120 50v407v5h-148l84 -182q4 -10 -5.5 -14.5t-13.5 5.5l-80 173l-75 -173q-4 -10 -14 -5.5t-6 14.5l83 187q-1 3 -1 6q0 4 3 7t7 3h157q-7 10 -7 22q0 15 11 25.5t26 10.5t26 -10.5t11 -25.5
q0 -12 -7 -22h157q7 0 10 -7q1 -1 2 -3l89 -193q5 -10 -5 -14.5t-14 5.5l-80 173l-75 -173q-4 -10 -14 -5.5t-5 14.5l80 182h-154z" />
    <glyph glyph-name="uniE624" unicode="&#xe624;" horiz-adv-x="1236" 
d="M981 -169h-220q-69 0 -117 48.5t-48 116.5v307q0 9 7 16t16.5 7t16.5 -7t7 -16v-306q0 -48 34.5 -82.5t83.5 -34.5h220q83 0 143 54t65 133q5 89 -55 151q-61 63 -147 63h-5q-10 0 -18 8q-7 9 -5 20q15 72 2 137q-20 112 -105 190.5t-199 91.5q-74 8 -143.5 -14.5
t-125.5 -72.5q-55 -49 -85.5 -116t-30.5 -141q0 -9 -5.5 -15.5t-14.5 -7.5q-91 -13 -150 -84.5t-55 -164.5q3 -95 77 -163.5t174 -68.5h107q10 0 17 -7t7 -16.5t-7.5 -15.5t-17.5 -6h-107q-118 0 -205 81t-92 195q-4 105 60 188t165 105q5 78 39 148.5t93 122.5
q63 57 142 82t164 16q129 -13 225.5 -102.5t118.5 -216.5q12 -68 3 -128q96 -7 159 -77q73 -79 66 -186q-6 -97 -79.5 -164.5t-174.5 -67.5zM802 129q-10 0 -17 7l-167 169l-168 -168q-7 -7 -16 -7t-16 7t-7 16.5t7 16.5l184 184q7 7 17 7t16 -7l184 -184q7 -7 7 -16.5
t-7 -16.5q-7 -8 -17 -8z" />
    <glyph glyph-name="uniE625" unicode="&#xe625;" 
d="M933 529q-63 49 -142 40q-2 80 -46 147t-117 101q-54 28 -115.5 28t-116.5 -28q-73 -34 -117 -101t-45 -147q-79 9 -143 -40q-37 -29 -57.5 -70t-20.5 -88q0 -82 58.5 -140.5t140.5 -58.5h97q10 0 17 7t7 17t-7 17t-17 7h-97q-63 0 -107 44t-44 107q0 74 60 120
q58 45 131 26q0 -1 2 -1q11 -2 21 5q9 9 8 21q-1 11 -1 21q0 68 36.5 125t98.5 85l1 1q44 23 94 23t94 -23q1 -1 2 -1q61 -28 98 -85t37 -125q0 -10 -1 -21q-1 -12 8 -21q9 -7 21 -5q1 0 2 1q72 19 131 -26q60 -46 60 -120q0 -63 -44.5 -107t-107.5 -44h-97q-10 0 -17 -7
t-7 -17t7 -17t17 -7h97q83 0 141.5 58.5t58.5 140.5q0 47 -20.5 88t-58.5 70zM634 95l-100 -100v453q0 9 -6.5 15.5t-15.5 6.5t-15 -6.5t-6 -15.5v-453l-101 100q-6 6 -15 6t-15 -6t-6 -15t6 -15l137 -137q2 -1 3 -3h1q1 0 1 -1h1l1 -1h1h1v-1h1h1h1h1h2v0h1h1q8 1 13 6
l137 137q7 6 7 15t-6.5 15t-15.5 6t-15 -6z" />
  </font>
</defs>
</svg>
